# xmcd
#
# Track frame offsets:
#	150
#	15230
#	33538
#	51464
#	73286
#	93903
#	106711
#	125757
#	141825
#	155876
#	168544
#	189865
#	203486
#	213224
#	228783
#
# Disc length: 3241
#
# Revision: 1
# Processed by: cddbd v1.5.1PL0 Copyright (c) Steve Scherf et al.
# Submitted via: EasyCDDAExtractor 4.5.0.2
# Normalized: r0:TDELIM( - )
#
DISCID=cb0ca70f
DTITLE=AMOR Love FM Radio
DYEAR=1900
DGENRE=
TTITLE0=LUZ - Un Ano De Amor
TTITLE1=GIGI D' ALESSIO - Amore Mio
TTITLE2=NINO - Amor
TTITLE3=MINA - Amor Mio
TTITLE4=AMEDEO MINGER - Cantone E D' AMore
TTITLE5=SELENA - Amor Prohibito
TTITLE6=ANGELO BRANDUARDE - L' Uso Dell' Amore
TTITLE7=AL BANO and ROMINA POWER - Caro, Caro Amore
TTITLE8=ADAMO - Amo
TTITLE9=CHRISTOPHE - Oh Mon Amour
TTITLE10=ROBERTO VECCHIONI - Per Amore Mio
TTITLE11=PINO DONAGGIO - Io Per Amore
TTITLE12=INTI ILLIMANI - Amore Hallaris (You'll Find Another Love)
TTITLE13=NAT KING COLE - Ansiedad
TTITLE14=JOSEPHINE BAKER - J'al Deux Amours
EXTD=
EXTT0=
EXTT1=
EXTT2=
EXTT3=
EXTT4=
EXTT5=
EXTT6=
EXTT7=
EXTT8=
EXTT9=
EXTT10=
EXTT11=
EXTT12=
EXTT13=
EXTT14=
PLAYORDER=
